<svg width="718" height="438" viewBox="0 0 718 438" fill="none" xmlns="http://www.w3.org/2000/svg">
<path d="M450.752 131.126V162.528L435.051 170.379V138.976L450.752 131.126Z" fill="white"/>
<path d="M435.045 170.379V186.08L419.344 193.93V225.333L403.643 233.183V154.678L419.344 146.827V178.229L435.045 170.379Z" fill="white"/>
<path d="M450.752 178.229V209.631L435.051 217.482V186.08L450.752 178.229Z" fill="white"/>
<path d="M654.867 29.4451V60.8473L639.166 68.6978V37.2956L654.867 29.4451Z" fill="white"/>
<path d="M639.169 68.6979V84.399L623.468 92.2496V123.652L607.76 131.502V52.9968L623.468 45.1462V76.5485L639.169 68.6979Z" fill="white"/>
<path d="M654.867 76.5485V107.951L639.166 115.801V84.399L654.867 76.5485Z" fill="white"/>
<path d="M172.709 271.018V286.719L157.008 294.569V357.374L141.307 365.224V302.42L125.605 310.27V294.569L172.709 271.018Z" fill="white"/>
<path d="M513.556 99.7236V115.425L497.855 123.275V186.08L482.154 193.93V131.126L466.453 138.976V123.275L513.556 99.7236Z" fill="white"/>
<path d="M560.658 138.711V154.419L544.957 162.27L529.256 170.113V91.6147L544.957 83.7642V146.569L560.658 138.711Z" fill="white"/>
<path d="M592.066 60.2122V138.71L576.365 146.568V130.86L560.664 138.71V123.009L576.365 115.166V68.0627L592.066 60.2122Z" fill="white"/>
<path d="M31.4021 343.496L15.701 351.347L0 359.198V437.703L15.701 429.853V398.45L31.4021 390.6V422.002L47.1328 414.151V335.646L31.4021 343.496ZM31.4021 374.899L15.701 382.749V367.048L31.4021 359.198V374.899Z" fill="white"/>
<path d="M372.248 170.747L356.576 178.605L340.875 186.456V264.961L356.576 257.111V225.709L372.277 217.858V249.26L387.978 241.41V162.904L372.248 170.747ZM372.248 202.15L356.576 210.007V194.306L372.277 186.456L372.248 202.15Z" fill="white"/>
<path d="M701.969 7.85056L686.268 15.7011L670.566 23.5517V102.065L686.268 94.214V62.8118L701.969 54.9613V86.3635L717.67 78.5129V0L701.969 7.85056ZM701.969 39.2528L686.268 47.1033V31.4022L701.969 23.5517V39.2528Z" fill="white"/>
<path d="M78.5038 319.111L62.8027 326.961V405.467L78.5038 397.616V366.214L109.906 350.513V303.409L78.5038 319.111ZM94.205 342.662L78.5038 350.513V334.812L94.205 326.961V342.662Z" fill="white"/>
<path d="M293.738 210.015L278.037 217.866V296.371L293.738 288.521V257.156L325.14 241.454V194.351L293.738 210.015ZM309.439 233.567L293.738 241.417V225.716L309.439 217.866V233.567Z" fill="white"/>
<path d="M262.338 226.743V305.249L246.637 313.099V250.295L230.935 258.145V320.95L215.234 328.8V250.295L230.935 242.444L246.637 234.594L262.338 226.743Z" fill="white"/>
</svg>
