<svg width="1412" height="707" viewBox="0 0 1412 707" fill="none" xmlns="http://www.w3.org/2000/svg">
<path d="M0 707L1412 0.5V707H0Z" fill="#D987A8"/>
<path d="M820 629.863V550.171L1358.15 276.862V356.822L820 629.863Z" fill="white"/>
<path d="M1037.35 459.885V468.796L1028.43 473.252V464.34L1037.35 459.885Z" fill="black"/>
<path d="M1046.25 464.34V499.988L1037.34 504.443V468.796L1046.25 464.34Z" fill="black"/>
<path d="M1028.43 473.252V508.899L1019.52 513.355V477.708L1028.43 473.252Z" fill="black"/>
<path d="M966.056 495.075V539.633L957.144 544.089V526.266L948.232 530.722V548.545L939.32 553.001V508.442L948.232 503.986V521.81L957.144 517.354V499.53L966.056 495.075Z" fill="black"/>
<path d="M992.784 517.811V526.723L983.872 531.179L974.965 535.635V491.076L983.872 486.62V522.267L992.784 517.811Z" fill="black"/>
<path d="M1010.6 473.252V517.811L1001.69 522.267V513.355L992.781 517.811V508.9L1001.69 504.444V477.708L1010.6 473.252Z" fill="black"/>
<path d="M921.501 517.056L912.59 521.512L903.678 525.968V570.527L912.59 566.071V548.248L921.501 543.792V561.615L930.413 557.159V512.601L921.501 517.056ZM921.501 534.88L912.59 539.336V530.424L921.501 525.968V534.88Z" fill="black"/>
<path d="M894.761 548.546V575.281L885.845 579.737V570.825L868.021 579.737V588.648L859.109 593.104V566.369L868.021 561.913V544.09L885.845 535.178V553.001L894.761 548.546Z" fill="black"/>
<path d="M1117.76 428.423V437.388L1135.69 428.423V437.388L1126.72 441.871L1117.76 446.354V455.319L1135.69 446.354V455.319L1108.79 468.767V423.94L1135.69 410.492V419.457L1117.76 428.423Z" fill="black"/>
<path d="M1187.74 393.441V402.407L1205.67 393.441V402.407L1196.71 406.889L1187.74 411.372V420.337L1205.67 411.372V420.337L1178.78 433.785V388.958L1205.67 375.51V384.476L1187.74 393.441Z" fill="black"/>
<path d="M1319.6 317.114V361.941L1310.64 366.423V330.562L1301.67 335.044V344.01L1292.71 348.492V330.562L1301.67 326.079L1310.64 321.596L1319.6 317.114Z" fill="black"/>
<path d="M1310.64 339.527V348.493L1301.67 352.975V344.01L1310.64 339.527Z" fill="black"/>
<path d="M1301.67 352.975V370.906L1292.71 375.389V357.458L1301.67 352.975Z" fill="black"/>
<path d="M1152.75 402.007L1143.79 406.49V451.317L1152.75 446.817V428.886L1170.69 419.921V393.025L1152.75 402.007ZM1161.72 415.455L1152.75 419.921V410.955L1161.72 406.473V415.455Z" fill="black"/>
<path d="M1100.7 427.309V472.136L1091.74 476.618V440.757L1082.77 445.239V481.101L1073.8 485.584V440.757L1082.77 436.274L1091.74 431.791L1100.7 427.309Z" fill="black"/>
<path d="M1284.62 335.027V379.854L1275.65 384.336V366.406L1266.69 370.888V388.819L1257.72 393.302V348.475L1266.69 343.992V361.923L1275.65 357.44V339.509L1284.62 335.027Z" fill="black"/>
<path d="M1249.63 371.859V398.755L1240.66 403.238V394.272L1222.73 403.238V412.203L1213.77 416.686V389.79L1222.73 385.307V367.376L1240.66 358.411V376.341L1249.63 371.859Z" fill="black"/>
<path d="M1161.27 342.466V264.149L1354.65 166.145V244.898L1161.27 342.466Z" fill="white"/>
<path d="M1289.16 222.135V252.459L1270.96 261.552V255.491L1283.09 249.427V243.36L1277.03 246.392L1270.96 249.427V243.36L1283.09 237.298V231.231L1270.96 237.298V231.231L1289.16 222.135Z" fill="black"/>
<path d="M1264.9 246.392V264.584L1258.84 267.619V255.491L1246.71 261.552V273.683L1240.65 276.712V258.52L1246.71 255.491V243.36L1258.84 237.298V249.427L1264.9 246.392Z" fill="black"/>
<path d="M1319.48 208.492V226.685L1331.61 220.621V226.685L1325.54 229.717L1319.48 232.749V238.813L1337.67 229.717V199.396L1319.48 208.492ZM1331.61 214.557L1325.54 217.589V211.53L1331.61 208.498V214.557Z" fill="black"/>
<path d="M1222.45 255.491V273.683L1210.32 279.745V285.809L1222.45 279.745V285.809L1216.39 288.841L1204.26 294.908V276.713L1216.39 270.651V264.584L1204.26 270.651V264.584L1222.45 255.491Z" fill="black"/>
<path d="M1192.13 276.715L1198.2 273.683V267.619L1192.13 270.651L1180 276.715V307.036L1192.13 300.972L1198.2 297.94V279.748L1192.13 282.78L1186.08 285.812V279.748L1192.13 276.715ZM1192.13 288.844V294.908L1186.08 297.94V291.876L1192.13 288.844Z" fill="black"/>
<path d="M1234.58 249.427V279.745L1228.52 282.777V252.459L1234.58 249.427Z" fill="black"/>
<path d="M1295.22 220.621V250.941L1313.41 241.845V211.53L1295.22 220.621ZM1307.35 238.813L1301.28 241.845V223.653L1307.35 220.621V238.813Z" fill="black"/>
</svg>
