<svg width="866" height="1356" viewBox="0 0 866 1356" fill="none" xmlns="http://www.w3.org/2000/svg">
<path d="M863.59 501.31L721.06 430.05L719.52 429.28L578.52 358.79L576.99 359.55L575.46 358.79L433.48 285.53L290.41 355.88L288.88 356.63L287.35 358.79L146.36 429.28L144.82 430.05L2.28 499.37L0.75 500.13V643.07L2.28998 643.84L143.29 714.33L144.82 713.56L146.35 714.33L288.88 785.58L290.42 786.35L288.88 787.12V928.11L290.41 928.88L288.88 929.63V1070.63L290.41 1071.4L288.88 1072.16V1213.15L290.42 1213.92L288.88 1214.68V1355.67L431.41 1284.42L432.94 1283.65V1142.66L431.4 1141.89L432.94 1141.13V1000.14L431.4 999.37L432.94 998.6V857.6L431.41 856.84L432.94 856.08L434.47 856.84L577 928.1L578.53 928.87L577 929.62V1070.62L578.53 1071.39L719.53 1141.87L721.07 1141.11V1000.12L719.53 999.35L721.07 998.58V857.6L719.54 856.84L578.54 786.35L577 787.12L575.46 786.35L577 785.58L719.52 714.33H719.53L721.06 713.56L722.59 714.33L863.58 643.84L865.12 643.07V502.08L863.59 501.31ZM288.9 644.59L287.36 643.83L143.31 571.8L144.85 571.04L146.39 571.8L287.38 501.32L288.91 500.55L290.44 501.32L288.91 502.08V643.07L290.45 643.84L288.9 644.59ZM432.95 430.05L431.41 429.28L432.95 428.51L434.49 429.28L432.95 430.05ZM721.06 572.56L578.54 643.82L577 644.58L575.46 643.82L577 643.05V502.06L575.47 501.3L577 500.53L578.53 501.3H578.54L719.53 571.78L721.07 571.02L722.61 571.78L721.06 572.56Z" fill="#1A78A9"/>
<path d="M576.92 74.51V215.5L575.38 216.27L434.39 286.76L432.86 286L431.33 286.76L290.34 216.27L288.8 215.5L288.59 72.6801L290.53 71.71L432.42 0.77002L575.36 73.74L576.92 74.51Z" fill="#1A78A9"/>
</svg>
