<svg width="707" height="607" viewBox="0 0 707 607" fill="none" xmlns="http://www.w3.org/2000/svg">
<path d="M706.801 253.151V341.568L662.603 363.67V319.466H662.593L618.395 341.568L574.197 363.67V407.873H574.187L529.988 429.985H529.979V341.568L574.197 319.466V231.05L618.385 208.948H618.395L662.593 186.836H662.603V275.243L706.801 253.151Z" fill="white"/>
<path d="M618.395 164.744H618.385V164.734L574.197 142.633L529.999 120.531H529.989L485.8 98.4294L441.612 76.3377H441.602L397.404 54.236L353.196 32.1144L353.186 32.1243L308.988 10.0226L264.79 -12.0791L220.592 -34.1808L176.394 -56.2825L-46 -167V9.81357L176.374 120.521L220.592 142.623L264.78 164.734L308.998 186.836L353.186 208.928L397.384 231.03L441.582 253.131L485.781 275.233V407.853L529.969 429.955V341.538L574.187 319.436V231.02L618.375 208.918H618.385L662.573 186.816L618.395 164.744ZM220.582 10.0127H220.592L220.582 10.0226V10.0127ZM264.78 32.1243V32.1144H264.79L264.78 32.1243Z" fill="#167C58"/>
<path d="M441.583 341.568V385.761L397.375 407.873V363.67L441.583 341.568Z" fill="#FBA400"/>
<path d="M485.781 275.263L441.583 297.355L397.394 319.456H397.374L353.196 341.568V518.392H353.186L308.998 496.29H308.988V363.67L264.78 341.568L220.592 319.456L176.384 297.355L-46 186.657V9.8136L176.384 120.531L220.592 142.633L264.78 164.745L308.988 186.846L353.186 208.938L397.394 231.05L441.583 253.151L485.781 275.263Z" fill="#FBA400"/>
<path d="M264.781 385.761L220.583 407.863L176.375 429.965V606.798H176.385L220.583 584.697V540.483L264.781 518.382L308.989 496.29V363.67L264.781 385.761ZM264.781 474.188L220.583 496.29V452.076L264.781 429.975V474.188Z" fill="white"/>
<path d="M264.78 429.975V474.188L220.592 496.29V452.087L264.78 429.975Z" fill="#CA262D"/>
<path d="M308.988 363.67L264.78 385.761L220.592 407.873L176.384 429.975V606.798L-45.99 496.101L-46 496.091V186.657L176.384 297.355L220.592 319.456L264.78 341.568L308.988 363.67Z" fill="#CA262D"/>
<path d="M485.781 275.253L441.593 297.355L397.395 319.456H397.385L353.207 341.558V518.372L397.385 496.28V452.076L441.583 429.975H441.593V474.178L485.791 452.076V275.253H485.781ZM397.375 407.873V363.67L441.593 341.568V385.761L397.375 407.873Z" fill="white"/>
</svg>
