<svg width="752" height="744" viewBox="0 0 752 744" fill="none" xmlns="http://www.w3.org/2000/svg">
<path d="M221.56 412.41V456.57L177.43 478.65V434.5L221.56 412.41Z" fill="#CA262D"/>
<path d="M398.15 324.11V368.25L354 390.33V346.18L398.15 324.11Z" fill="#FBA400"/>
<path d="M707.021 522.68V478.46L662.811 500.57L707.021 522.68Z" fill="#D987A8"/>
<path d="M663.049 235.8V324.11L618.909 346.19V302.04H618.899L574.759 324.11L530.619 346.19V390.34H530.609L486.459 412.43H486.449V324.12L530.609 302.05V213.74L574.739 191.66H574.749L618.889 169.57H618.899V257.87L663.049 235.8Z" fill="white"/>
<path d="M221.56 368.25L177.42 390.32L133.27 412.4V589.02H133.28L177.42 566.94V522.78L221.56 500.71L265.71 478.64V346.19L221.56 368.25ZM221.56 456.57L177.42 478.65V434.49L221.56 412.41V456.57Z" fill="white"/>
<path d="M265.72 346.19L265.31 346.39L221.6 368.23L221.08 368.49L177.43 390.33L177.4 390.35L176.87 390.61L133.27 412.41V589.02H133.26L133.02 588.9H133.01L132.65 588.71L88.71 566.84H88.7L88.44 566.71V566.7L44.37 544.77L44.21 544.69L0.14 522.75L0.07 522.72V522.71L0 522.68V213.61L0.14 213.68L43.89 235.46L44.21 235.62L88.21 257.52H88.22L88.44 257.63L132.53 279.59H132.54L132.65 279.64L176.75 301.69H176.76L176.87 301.75L177.43 302.03L220.96 323.81L265.18 345.92L265.31 345.99L265.72 346.19Z" fill="#CA262D"/>
<path d="M398.151 500.72V677.34L354.011 699.41L354.001 699.42L309.861 721.49L265.721 743.56V699.4L309.861 677.33L354.011 655.25V611.1L265.711 655.26V566.95L309.851 544.87V589.02L354.001 566.95V522.8L398.151 500.72Z" fill="white"/>
<path d="M707.19 346.19L663.05 368.26L618.91 390.34H618.9V566.96H618.91V566.95L663.05 544.88V500.73L707.18 478.67V478.66H707.19V522.81L751.31 500.73H751.32V324.11L707.19 346.19ZM707.19 434.49L663.05 456.57V412.42L707.18 390.35V390.34H707.19V434.49Z" fill="white"/>
<path d="M707.191 390.33V434.49L663.051 456.57V412.42L707.191 390.33Z" fill="#D987A8"/>
<path d="M751.339 324.11L707.199 346.19H707.189V346.2L663.059 368.27L618.909 390.35H618.899V566.96L574.759 544.89H574.749L548.259 531.65L530.609 522.83H530.589L486.449 500.74L530.589 478.67H530.599L530.609 478.66L574.739 456.59L574.749 456.58H574.739V412.44L530.599 390.35V346.2L574.739 324.12L618.889 302.04H618.899V346.19L663.049 324.11V279.95L707.179 302.04H707.189L751.339 324.11Z" fill="#D987A8"/>
<path d="M574.75 412.42L530.6 434.49L486.46 456.57L442.32 478.65V655.27H442.31L398.19 677.34H398.18V677.35H398.17V500.72L354.04 478.65L354 434.49L398.15 412.42H398.16L442.3 434.49V390.33L486.43 412.42H486.44L530.58 390.33H530.59L574.75 412.42Z" fill="#CA262D"/>
<path d="M574.75 412.42V456.57L530.62 478.64L530.61 478.65H530.6L486.46 500.73V633.2L442.33 655.27H442.32V478.64L486.46 456.56L530.6 434.49L574.75 412.42Z" fill="white"/>
<path d="M618.38 169.3L574.82 147.53H574.81L574.75 147.5H574.74V147.49L574.15 147.19L530.61 125.42L530.6 125.41L529.93 125.08L486.46 103.34H486.45L486.39 103.31L485.72 102.97L442.32 81.27L442.17 81.2L441.5 80.86L398.18 59.2H398.17L397.95 59.09L397.27 58.75L354.03 37.13L353.73 36.98L353.06 36.64H353.05L309.87 15.03L309.86 15.04L309.52 14.87L308.84 14.53L280.78 0.5H0.14V36.24L0.01 36.3H0V36.99L0.14 37.06L43.62 58.7V58.71L44.21 59L87.94 80.77L88.44 81.02L132.26 102.83L132.65 103.03L133.27 103.34L176.47 124.94H176.48L176.87 125.13L177.43 125.41L220.69 147.05L221.08 147.25L221.56 147.49L264.93 169.16L265.73 169.56L309.14 191.27L309.52 191.46L309.86 191.63L353.35 213.38L353.73 213.57L354.01 213.71L354.02 213.72L397.57 235.49L397.95 235.68L398.15 235.78L441.8 257.6L442.17 257.79L442.3 257.85V390.31L442.31 390.32L486.21 412.28L486.39 412.37L486.43 412.39V324.08L486.74 323.93L530.6 302V213.7L531.1 213.44H531.11L574.73 191.62H574.74L574.81 191.58H574.82L575.32 191.33L618.87 169.54L618.38 169.3ZM221.56 15.03H221.57L221.56 15.04V15.03Z" fill="#167C58"/>
<path d="M442.29 257.88L442.17 257.94L398.48 279.79H398.47L398.16 279.95L397.95 280.05L354.26 301.9L354.02 302.02H354.01L353.73 302.16L310.05 324.02L309.88 324.1L309.87 324.11V500.72L309.61 500.59H309.6L309.52 500.55L287.8 489.68L265.72 478.64V346.19L265.31 345.99L265.18 345.92L220.96 323.81L177.43 302.02L176.87 301.74L176.76 301.69H176.75L132.65 279.64L132.54 279.59H132.53L88.44 257.63L88.22 257.52H88.21L44.21 235.62L43.89 235.46L0.14 213.68L0 213.61V36.9902L0.14 37.0602L43.62 58.7002V58.7102L44.21 59.0002L87.94 80.7702L88.44 81.0202L132.26 102.83V102.84L132.65 103.03L133.27 103.34L176.47 124.94H176.48L176.87 125.14L177.43 125.42L220.68 147.06L221.56 147.5L264.91 169.17L265.31 169.37L265.72 169.57L309.13 191.28L309.52 191.47L309.86 191.64L353.35 213.38L353.73 213.57V213.58L354.01 213.71L354.02 213.72L397.55 235.5L397.95 235.7L398.15 235.8L442.17 257.81L442.29 257.88Z" fill="#FBA400"/>
<path d="M398.15 500.72V500.73H398.14L397.95 500.82L354.02 522.8V566.95L353.86 567.03L353.73 567.1L309.86 589.03V544.88L309.72 544.95L309.52 545.05L265.72 566.95V655.26L309.52 633.36L309.58 633.33L353.73 611.25L353.79 611.22L354.02 611.1V655.26L353.73 655.41L309.86 677.34L309.52 677.51H309.51L265.72 699.4V743.55L265.31 743.35L221.58 721.49H221.57L221.08 721.24L177.42 699.41L177.37 699.39L176.87 699.14L133.07 677.31L132.65 677.1L88.78 655.24L88.44 655.07L44.48 633.17H44.47L44.21 633.04L0.18 611.1L0.14 611.08L0 611.01V522.68L0.07 522.72L0.14 522.75L44.21 544.69L44.37 544.77L88.44 566.71L88.7 566.84H88.71L132.65 588.72L133.01 588.9H133.02L133.26 589.02L133.27 589.03L176.87 567.22L177.12 567.1V567.09L177.41 566.95H177.43V522.79L221.08 500.97L221.41 500.8L221.57 500.72L265.31 478.85V478.84L265.63 478.68L265.72 478.64L287.8 489.68L309.52 500.54V500.55L309.6 500.59H309.61L309.87 500.72L353.73 478.78L353.98 478.65H353.99L354.01 478.64H354.02L397.95 500.62H397.96L398.15 500.72Z" fill="#1A78A9"/>
<path d="M442.3 257.87L398.17 279.95L354.03 302.02H354.02L309.9 324.1V500.7L354.02 478.63V434.48L398.16 412.41H398.17V456.56L442.31 434.48L442.3 257.87ZM354 390.33V346.18L398.16 324.1V368.24L354 390.33Z" fill="white"/>
</svg>
