<svg width="359" height="334" viewBox="0 0 359 334" fill="none" xmlns="http://www.w3.org/2000/svg">
<path d="M222.086 22.4025V69L177.707 92.5L134.135 69V22.4025L178.105 0L222.086 22.4025Z" fill="#CA262D"/>
<path d="M312.207 288.895L356.055 311.299L312.207 333.694L268.359 311.299L224.511 288.895L177.611 268.806L131.554 288.895L87.7059 311.299L43.848 333.694L0 311.299L43.848 288.895L87.7059 266.5L131.554 244.095L133.763 156.793L89.9146 179.198L46.0567 201.603L2.20869 179.198L46.0567 156.793L89.9146 134.399L133.763 111.994L177.611 89.5999L221.469 111.994L265.317 134.399L311.207 156.793L358.207 177.5L309.165 201.603L265.317 179.198L221.469 156.793L224.511 244.095L268.359 266.5L312.207 288.895Z" fill="#CA262D"/>
</svg>
