<svg width="399" height="282" viewBox="0 0 399 282" fill="none" xmlns="http://www.w3.org/2000/svg">
<path d="M12.4331 261.174L39.3197 247.729V261.174L12.4331 274.619L-1 281.337V214.122L12.4331 207.405L39.3197 193.96V207.405L25.8764 214.122L12.4331 220.85V261.174Z" fill="white"/>
<path d="M133.647 149.709V163.062L120.295 169.739V156.385L133.647 149.709Z" fill="white"/>
<path d="M147 156.385V209.8L133.648 216.476V163.062L147 156.385Z" fill="white"/>
<path d="M120.295 169.739V223.153L106.943 229.83V176.416L120.295 169.739Z" fill="white"/>
<path d="M302.139 119.551V132.905L288.788 139.582L275.436 146.259V79.5007L288.788 72.824V126.228L302.139 119.551Z" fill="white"/>
<path d="M328.834 52.7936V119.551L315.493 126.228V112.885L302.141 119.551V106.208L315.493 99.5311V59.4704L328.834 52.7936Z" fill="white"/>
<path d="M206.727 112.509V180.008L193.233 186.756V132.763L179.739 139.511V153.006L166.234 159.754V132.763L179.739 126.015L193.233 119.257L206.727 112.509Z" fill="white"/>
<path d="M193.232 146.259V159.754L179.738 166.512V153.006L193.232 146.259Z" fill="white"/>
<path d="M179.739 166.512V193.503L166.234 200.251V173.26L179.739 166.512Z" fill="white"/>
<path d="M236.463 97.8874L223.01 104.615V171.89L236.463 165.163V138.252L263.37 124.797V84.4323L236.463 97.8874ZM249.917 118.07L236.463 124.797V111.342L249.917 104.615V118.07Z" fill="white"/>
<path d="M79.8826 174.153L66.3885 180.901L52.8945 187.649V255.147L66.3885 248.399L79.8826 241.651L93.3766 234.904V167.405L79.8826 174.153ZM79.8826 228.146L66.3885 234.893V194.396L79.8826 187.649V228.146Z" fill="white"/>
<path d="M384.84 0.546265V14.4072L357.121 28.2681V14.4072L384.84 0.546265Z" fill="white"/>
<path d="M370.98 86.9793V100.84L357.121 107.781L343.262 114.711V45.3964L357.121 38.4559V93.9098L370.98 86.9793Z" fill="white"/>
<path d="M398.709 17.6644V86.9792L384.84 93.9097V80.0487L370.98 86.9792V73.1183L384.84 66.1877V24.5948L398.709 17.6644Z" fill="white"/>
</svg>
