<svg width="574" height="432" viewBox="0 0 574 432" fill="none" xmlns="http://www.w3.org/2000/svg">
<path d="M429.73 145.324V290.677L575 218L429.73 145.324Z" fill="#F69105"/>
<path d="M429.73 145.324V290.677L575 218L429.73 145.324Z" stroke="#231F20"/>
<path d="M359.515 107.843L287.606 71.8921L215.745 107.814V108.235L215.677 108.265L143.836 144.167V287.96L215.677 323.862V323.519L215.745 323.49V323.558L287.606 359.46L359.515 323.519L431.425 287.568V143.784L359.515 107.843ZM215.745 252.019L215.677 252.049V251.647L215.745 251.617V252.019ZM215.745 180.127L215.677 180.157V179.735L215.745 179.706V180.127Z" fill="#FBC635"/>
<path d="M143.839 144.176V287.97L71.9096 252.019L0 216.078L71.9096 180.127L143.839 144.176Z" fill="#F69105"/>
<path d="M287.606 359.47L215.745 395.392L215.677 395.421V395.843L143.836 431.754V287.97L215.677 323.872V323.941L215.745 323.911V323.568L287.606 359.47Z" fill="#F69105"/>
<path d="M431.426 0V143.804L359.517 107.843L287.607 71.8921L359.517 35.9607L431.426 0Z" fill="#F69105"/>
<path d="M287.606 71.8925L215.745 107.814L215.677 107.843V108.265L143.836 144.177V0.3927L215.677 36.2946V36.3632L215.745 36.324V35.9906L287.606 71.8925Z" fill="#F69105"/>
<path d="M431.426 287.578V431.382L359.517 395.421L287.607 359.47L359.517 323.539L431.426 287.578Z" fill="#F69105"/>
</svg>
