<svg width="796" height="807" viewBox="0 0 796 807" fill="none" xmlns="http://www.w3.org/2000/svg">
<path d="M441.573 563.037V739.87L397.385 761.962L397.375 761.972L353.177 784.064L308.979 806.166V761.962L353.177 739.87L397.385 717.769V673.555L308.979 717.769V629.352L353.177 607.25V651.454L397.385 629.352V585.149L441.573 563.037Z" fill="white"/>
<path d="M750.99 408.315H750.98V408.325L706.792 430.417L662.594 452.518H662.584V629.352H662.594V629.342L706.792 607.25V563.047L750.98 540.955V540.945H750.99V585.148L795.168 563.047H795.178V386.213L750.99 408.315ZM750.99 496.732H750.98V496.742L706.792 518.833V474.63L750.98 452.538V452.528H750.99V496.732Z" fill="white"/>
<path d="M707 563L751 541L751.5 585L707 563Z" fill="#D987A8"/>
<path d="M750.989 452.518V496.732L706.791 518.833V474.63L750.989 452.518Z" fill="#D987A8"/>
<path d="M795.187 386.213L750.989 408.315H750.979V408.325L706.791 430.416L662.593 452.518H662.583V629.343L618.395 607.241H618.385L591.866 593.98L574.197 585.149H574.177L529.979 563.037L574.177 540.935H574.187L574.197 540.925L618.385 518.833L618.395 518.823H618.385V474.63L0 166V94.5V81.5V64V48.5V39.5V-0.5L12 -5L142.501 58.6116L750.989 364.111L795.187 386.213Z" fill="#D987A8"/>
<path d="M618.385 474.63L574.177 496.732L529.979 518.833L485.781 540.935V717.769H485.771L441.593 739.86H441.583V739.87H441.573V563.037L-0.000518799 343L-0.00149536 319L-0.00195312 312L-0.00149536 301L-0.000518799 274.5V247.5V239.5V225.5V165.5L574.187 452.518L618.385 474.63Z" fill="#CA262D"/>
<path d="M618.385 474.63V518.833L574.197 540.925L574.187 540.935H574.177L529.979 563.037V695.667L485.791 717.769H485.781V540.935L529.979 518.833L574.177 496.732L618.385 474.63Z" fill="white"/>
<path d="M441.573 563.037L397.384 585.149V629.352L353.176 651.454V607.25L308.978 629.352V717.769L397.384 673.555V717.769L353.176 739.87L308.978 761.962V806.165L264.79 784.074H264.78L220.572 761.972L-0.5 651.454L-0.499619 607.25L-0.499809 585.149V570.5V557V549.5V510V461V386.5V342.5L397.384 540.935L441.573 563.037Z" fill="#1A78A9"/>
</svg>
