<svg width="673" height="424" viewBox="0 0 673 424" fill="none" xmlns="http://www.w3.org/2000/svg">
<path d="M658.705 0.0407715V13.6783L631.43 27.3158V13.6783L658.705 0.0407715Z" fill="white"/>
<path d="M300.242 260.169V273.806L272.967 287.466V219.256L286.604 212.437V266.987L300.242 260.169Z" fill="white"/>
<path d="M327.541 191.981V260.169L313.904 266.987V253.35L300.244 260.169V246.531L313.904 239.712V198.8L327.541 191.981Z" fill="white"/>
<path d="M163.846 273.806V342.016L204.758 321.559V253.35L163.846 273.806ZM191.187 314.697L177.549 321.515V280.625L191.187 273.806V314.697Z" fill="white"/>
<path d="M245.695 232.893L232.057 239.668L218.42 246.487V314.696L232.057 307.877V280.625L245.695 273.806L259.332 266.987V226.075L245.695 232.893ZM245.695 260.168L232.057 266.987V253.35L245.695 246.531V260.168Z" fill="white"/>
<path d="M41.0629 335.197V403.406L0.150391 423.863V410.225L27.4254 396.588V382.95L0.150391 396.588V382.95L13.7879 376.131L27.4254 369.313V355.653L0.150391 369.313V355.653L41.0629 335.197Z" fill="white"/>
<path d="M150.206 280.647V294.284L122.909 307.922V362.494L109.271 369.313V301.103L122.909 294.284L136.547 287.466L150.206 280.647Z" fill="white"/>
<path d="M81.9996 314.697L68.3621 321.515L54.7246 328.334V396.544L68.3621 389.725V362.472L81.9996 355.653V382.928L95.6371 376.11V307.922L81.9996 314.697ZM81.9996 341.972L68.3621 348.79V335.153L81.9996 328.334V341.972Z" fill="white"/>
<path d="M590.605 57.8128L576.968 64.6315L563.33 71.4503V139.66L576.968 132.819L590.605 126L604.265 119.182V50.994L590.605 57.8128ZM590.605 112.363L576.968 119.182V78.269L590.605 71.4503V112.363Z" fill="white"/>
<path d="M645.066 85.0875V98.725L631.429 105.544L617.791 112.385V44.175L631.429 37.3562V91.9062L645.066 85.0875Z" fill="white"/>
<path d="M672.339 16.8779V85.0875L658.702 91.9062V78.2687L645.064 85.0875V71.45L658.702 64.6312V23.6966L672.339 16.8779Z" fill="white"/>
<path d="M549.581 78.2689V146.478L508.646 166.935L495.009 173.754L481.371 180.572V112.385L495.009 105.544V160.116L508.646 153.297V98.7251L522.306 91.9064V146.478L535.943 139.66V85.0876L549.581 78.2689Z" fill="white"/>
<path d="M467.731 119.181V187.391L454.094 194.21L426.797 207.847V194.21L440.456 187.391L454.094 180.572V166.935L426.797 180.572V139.66L440.456 132.841V160.116L454.094 153.297V126.022L467.731 119.181Z" fill="white"/>
<path d="M413.157 173.753V214.688L399.52 221.507V207.847L372.245 221.507V235.144L358.607 241.963V201.028L372.245 194.21V166.935L399.52 153.297V180.572L413.157 173.753Z" fill="white"/>
</svg>
